<svg width="32" height="33" viewBox="0 0 32 33" fill="none" xmlns="http://www.w3.org/2000/svg">
<path fill-rule="evenodd" clip-rule="evenodd" d="M16.1368 9.04733C17.2087 8.10221 18.5883 7.51815 20.0116 7.45617L20.2632 7.45068C23.6174 7.45068 26.2 10.1296 26.2 13.5698C26.2 14.6487 25.9424 15.6942 25.43 16.7426C25.4197 16.7638 25.4084 16.7856 25.3961 16.8083L25.3106 16.9534L25.2012 17.1173C25.181 17.1462 25.1597 17.1759 25.1375 17.2063L24.992 17.3988L24.8221 17.6105L24.6277 17.8418L24.4086 18.093L24.0332 18.5073L23.4442 19.1315L22.9353 19.6544L21.9572 20.6327L20.8141 21.7479L19.2201 23.272L17.3787 25.0051C16.6029 25.7309 15.3972 25.7309 14.6208 25.0046L13.9846 24.4083L12.7835 23.2751L11.437 21.9897L10.2597 20.8461L9.43754 20.0308L8.88965 19.476L8.39991 18.9689L8.10537 18.6568L7.71101 18.2272L7.47943 17.9661L7.27267 17.7248L7.09053 17.5033L6.9328 17.3011L6.79928 17.1181L6.68977 16.9539C6.67351 16.9282 6.65824 16.9031 6.64395 16.8789L6.57006 16.7426C6.05765 15.6942 5.80005 14.6487 5.80005 13.5698C5.80005 10.1296 8.38271 7.45068 11.7369 7.45068C13.2477 7.45068 14.7277 8.04679 15.8628 9.0474L15.999 9.17268L16.1368 9.04733ZM23.8004 13.5698C23.8004 11.4358 22.2723 9.85068 20.2636 9.85068C18.9953 9.85068 17.7153 10.5725 17.0126 11.6762C16.5411 12.4168 15.4599 12.4169 14.9883 11.6764C14.2854 10.573 13.0046 9.85068 11.7373 9.85068C9.72862 9.85068 8.20044 11.4358 8.20044 13.5698C8.20044 14.271 8.36986 14.9587 8.7267 15.6888C8.73234 15.7003 8.73978 15.7137 8.74899 15.7287L8.82531 15.8399L9.01719 16.0815L9.19522 16.29L9.53485 16.6699L10.1178 17.293L10.6481 17.8403L11.3503 18.547L12.1522 19.3378L13.3762 20.5228L14.7771 21.8568L15.9994 23.0077L17.6106 21.4903L18.6095 20.5373L19.5156 19.6625L20.3288 18.8661L21.049 18.1481L21.4521 17.7389L21.9546 17.2179L22.3816 16.762L22.6229 16.4968L22.8284 16.2641L23.0675 15.9795L23.1795 15.8347L23.2526 15.7277L23.2742 15.6888C23.631 14.9587 23.8004 14.271 23.8004 13.5698Z" fill="white" fill-opacity="0.64"/>
</svg>
