<svg width="24" height="24" viewBox="0 0 24 24" fill="none" xmlns="http://www.w3.org/2000/svg">
<path d="M19.2031 4.58353L12.96 9.22039L14.1145 6.4847L19.2031 4.58353Z" fill="#E2761B" stroke="#E2761B" stroke-width="0.104575" stroke-linecap="round" stroke-linejoin="round"/>
<path d="M4.79059 4.58353L10.9835 9.26431L9.88549 6.4847L4.79059 4.58353Z" fill="#E4761B" stroke="#E4761B" stroke-width="0.104575" stroke-linecap="round" stroke-linejoin="round"/>
<path d="M16.9569 15.3318L15.2941 17.8792L18.8518 18.858L19.8745 15.3882L16.9569 15.3318Z" fill="#E4761B" stroke="#E4761B" stroke-width="0.104575" stroke-linecap="round" stroke-linejoin="round"/>
<path d="M4.13177 15.3882L5.14825 18.858L8.70589 17.8792L7.04315 15.3318L4.13177 15.3882Z" fill="#E4761B" stroke="#E4761B" stroke-width="0.104575" stroke-linecap="round" stroke-linejoin="round"/>
<path d="M8.50511 11.0275L7.51373 12.5271L11.0463 12.6839L10.9208 8.88785L8.50511 11.0275Z" fill="#E4761B" stroke="#E4761B" stroke-width="0.104575" stroke-linecap="round" stroke-linejoin="round"/>
<path d="M15.4886 11.0274L13.0416 8.84392L12.96 12.6839L16.4863 12.5271L15.4886 11.0274Z" fill="#E4761B" stroke="#E4761B" stroke-width="0.104575" stroke-linecap="round" stroke-linejoin="round"/>
<path d="M8.70589 17.8792L10.8267 16.8439L8.99452 15.4133L8.70589 17.8792Z" fill="#E4761B" stroke="#E4761B" stroke-width="0.104575" stroke-linecap="round" stroke-linejoin="round"/>
<path d="M13.1671 16.8439L15.2941 17.8792L14.9992 15.4133L13.1671 16.8439Z" fill="#E4761B" stroke="#E4761B" stroke-width="0.104575" stroke-linecap="round" stroke-linejoin="round"/>
<path d="M15.2941 17.8792L13.167 16.8439L13.3365 18.2306L13.3176 18.8141L15.2941 17.8792Z" fill="#D7C1B3" stroke="#D7C1B3" stroke-width="0.104575" stroke-linecap="round" stroke-linejoin="round"/>
<path d="M8.70588 17.8792L10.6824 18.8141L10.6698 18.2306L10.8267 16.8439L8.70588 17.8792Z" fill="#D7C1B3" stroke="#D7C1B3" stroke-width="0.104575" stroke-linecap="round" stroke-linejoin="round"/>
<path d="M10.7137 14.4973L8.94431 13.9765L10.1929 13.4055L10.7137 14.4973Z" fill="#233447" stroke="#233447" stroke-width="0.104575" stroke-linecap="round" stroke-linejoin="round"/>
<path d="M13.28 14.4973L13.8008 13.4055L15.0557 13.9765L13.28 14.4973Z" fill="#233447" stroke="#233447" stroke-width="0.104575" stroke-linecap="round" stroke-linejoin="round"/>
<path d="M8.70588 17.8792L9.00706 15.3318L7.04314 15.3882L8.70588 17.8792Z" fill="#CD6116" stroke="#CD6116" stroke-width="0.104575" stroke-linecap="round" stroke-linejoin="round"/>
<path d="M14.9929 15.3318L15.2941 17.8792L16.9569 15.3882L14.9929 15.3318Z" fill="#CD6116" stroke="#CD6116" stroke-width="0.104575" stroke-linecap="round" stroke-linejoin="round"/>
<path d="M16.4863 12.5271L12.96 12.6839L13.2863 14.4973L13.8071 13.4055L15.062 13.9765L16.4863 12.5271Z" fill="#CD6116" stroke="#CD6116" stroke-width="0.104575" stroke-linecap="round" stroke-linejoin="round"/>
<path d="M8.94431 13.9765L10.1992 13.4055L10.7137 14.4973L11.0463 12.6839L7.51373 12.5271L8.94431 13.9765Z" fill="#CD6116" stroke="#CD6116" stroke-width="0.104575" stroke-linecap="round" stroke-linejoin="round"/>
<path d="M7.51373 12.5271L8.99451 15.4133L8.94431 13.9765L7.51373 12.5271Z" fill="#E4751F" stroke="#E4751F" stroke-width="0.104575" stroke-linecap="round" stroke-linejoin="round"/>
<path d="M15.062 13.9765L14.9992 15.4133L16.4863 12.5271L15.062 13.9765Z" fill="#E4751F" stroke="#E4751F" stroke-width="0.104575" stroke-linecap="round" stroke-linejoin="round"/>
<path d="M11.0463 12.6839L10.7137 14.4973L11.1278 16.6369L11.2219 13.8196L11.0463 12.6839Z" fill="#E4751F" stroke="#E4751F" stroke-width="0.104575" stroke-linecap="round" stroke-linejoin="round"/>
<path d="M12.96 12.6839L12.7906 13.8133L12.8659 16.6369L13.2863 14.4973L12.96 12.6839Z" fill="#E4751F" stroke="#E4751F" stroke-width="0.104575" stroke-linecap="round" stroke-linejoin="round"/>
<path d="M13.2863 14.4973L12.8659 16.6369L13.1671 16.8439L14.9992 15.4133L15.062 13.9765L13.2863 14.4973Z" fill="#F6851B" stroke="#F6851B" stroke-width="0.104575" stroke-linecap="round" stroke-linejoin="round"/>
<path d="M8.94431 13.9765L8.99451 15.4133L10.8267 16.8439L11.1278 16.6369L10.7137 14.4973L8.94431 13.9765Z" fill="#F6851B" stroke="#F6851B" stroke-width="0.104575" stroke-linecap="round" stroke-linejoin="round"/>
<path d="M13.3176 18.8141L13.3365 18.2306L13.1796 18.0926H10.8141L10.6698 18.2306L10.6824 18.8141L8.70588 17.8792L9.39608 18.4439L10.7953 19.4165H13.1984L14.6039 18.4439L15.2941 17.8792L13.3176 18.8141Z" fill="#C0AD9E" stroke="#C0AD9E" stroke-width="0.104575" stroke-linecap="round" stroke-linejoin="round"/>
<path d="M13.1671 16.8439L12.8659 16.6369H11.1278L10.8267 16.8439L10.6698 18.2306L10.8141 18.0926H13.1796L13.3365 18.2306L13.1671 16.8439Z" fill="#161616" stroke="#161616" stroke-width="0.104575" stroke-linecap="round" stroke-linejoin="round"/>
<path d="M19.4666 9.52157L20 6.96157L19.2031 4.58353L13.167 9.06353L15.4886 11.0275L18.7702 11.9875L19.498 11.1404L19.1843 10.9145L19.6863 10.4565L19.2972 10.1553L19.7992 9.77255L19.4666 9.52157Z" fill="#763D16" stroke="#763D16" stroke-width="0.104575" stroke-linecap="round" stroke-linejoin="round"/>
<path d="M3.99999 6.96157L4.53333 9.52157L4.1945 9.77255L4.69646 10.1553L4.31372 10.4565L4.81568 10.9145L4.50195 11.1404L5.22352 11.9875L8.50509 11.0275L10.8267 9.06353L4.79058 4.58353L3.99999 6.96157Z" fill="#763D16" stroke="#763D16" stroke-width="0.104575" stroke-linecap="round" stroke-linejoin="round"/>
<path d="M18.7702 11.9875L15.4886 11.0275L16.4863 12.5271L14.9992 15.4133L16.9569 15.3882H19.8745L18.7702 11.9875Z" fill="#F6851B" stroke="#F6851B" stroke-width="0.104575" stroke-linecap="round" stroke-linejoin="round"/>
<path d="M8.5051 11.0275L5.22352 11.9875L4.13176 15.3882H7.04313L8.99451 15.4133L7.51372 12.5271L8.5051 11.0275Z" fill="#F6851B" stroke="#F6851B" stroke-width="0.104575" stroke-linecap="round" stroke-linejoin="round"/>
<path d="M12.96 12.6839L13.1671 9.06353L14.1208 6.4847H9.88549L10.8267 9.06353L11.0463 12.6839L11.1216 13.8259L11.1278 16.6369H12.8659L12.8784 13.8259L12.96 12.6839Z" fill="#F6851B" stroke="#F6851B" stroke-width="0.104575" stroke-linecap="round" stroke-linejoin="round"/>
</svg>
